<?xml version="1.0" encoding="utf-8"?>
<!-- Generated by IcoMoon.io -->
<!DOCTYPE svg PUBLIC "-//W3C//DTD SVG 1.1//EN" "http://www.w3.org/Graphics/SVG/1.1/DTD/svg11.dtd">
<svg version="1.1" xmlns="http://www.w3.org/2000/svg" xmlns:xlink="http://www.w3.org/1999/xlink" width="512" height="512" viewBox="0 0 512 512">
<g>
</g>
	<path d="M122.153 182.323h-25.395c-2.437 0-4.342 1.976-4.342 4.423v13.302h34.028v-13.302c0-2.447-1.915-4.423-4.29-4.423z" fill="#3F51B5" />
	<path d="M378.409 313.723c0-66.427-52.88-120.484-117.945-120.484-64.983 0-117.913 54.057-117.913 120.484 0 66.406 52.93 120.474 117.913 120.474 65.065-0.010 117.945-54.067 117.945-120.474zM309.104 258.355c-29.43-23.481-77.619-9.246-78.121-9.113h0.020l-5.775-19.712c2.375-0.727 58.471-17.449 96.215 12.544 22.702 18.073 33.341 48.517 31.58 90.511l-20.101-0.87c1.403-34.949-6.523-59.587-23.818-73.36z" fill="#3F51B5" />
	<path d="M364.902 405.688h55.757c2.294 0 4.106-1.669 4.106-3.697v-177.643c0-2.048-1.822-3.717-4.106-3.717h-56.76c21.474 24.873 34.611 57.406 34.611 93.092 0 35.154-12.697 67.257-33.608 91.966z" fill="#3F51B5" />
	<path d="M351.867 208.302c0.901 0.819 1.843 1.669 2.724 2.54-0.88-0.891-1.843-1.72-2.724-2.54z" fill="##3F51B5" />
	<path d="M420.024 18.391h-328.069c-40.612 0-73.543 32.942-73.543 73.585v328.059c0 40.622 32.932 73.584 73.543 73.584h328.069c40.612 0 73.575-32.962 73.575-73.584v-328.069c-0.010-40.633-32.973-73.575-73.575-73.575zM417.331 57.231c15.125 0 27.341 12.503 27.341 27.934 0 15.421-12.216 27.955-27.341 27.955-15.104 0-27.382-12.534-27.382-27.955 0-15.421 12.278-27.934 27.382-27.934zM383.416 124.293c11.479 0 20.787 6.983 20.787 15.626 0 8.663-9.308 15.657-20.787 15.657-11.449 0-20.767-6.994-20.767-15.657 0-8.643 9.318-15.626 20.767-15.626zM301.486 93.737c13.906 0 25.2 11.51 25.2 25.672 0 14.203-11.295 25.723-25.2 25.723-13.896 0-25.19-11.52-25.19-25.723 0-14.162 11.295-25.671 25.19-25.671zM444.908 401.991c0 13.363-10.875 24.289-24.248 24.289h-77.363c-23.111 17.808-51.712 28.508-82.832 28.508-31.877 0-61.214-11.223-84.613-29.88 0.594 0.44 1.024 0.921 1.618 1.372h-86.129c-13.343 0-24.238-10.926-24.238-24.289v-177.643c0-10.752 7.014-19.794 16.701-22.969v-14.623c0-7.291 5.785-13.23 12.954-13.23h25.395c7.147 0 12.954 5.939 12.954 13.23v13.302h42.373c-7.946 6.031-15.186 12.953-21.689 20.572h-64.451c-2.284 0-4.106 1.679-4.106 3.717v177.643c0 2.027 1.823 3.697 4.106 3.697h64.451c1.434 1.68 3.021 3.185 4.526 4.782-23.409-25.282-37.868-59.3-37.868-96.748 0-77.773 61.891-141.046 138.015-141.046 31.928 0 61.286 11.233 84.664 29.881-1.024-0.819-1.904-1.731-2.918-2.509h78.448c13.384 0 24.248 10.895 24.248 24.299v177.643z" fill="#3F51B5" />
	<path d="M164.311 414.71c-1.372-1.351-2.673-2.806-3.994-4.24 1.321 1.433 2.631 2.887 3.994 4.24z" fill="#000000" />
	<path d="M345.129 202.558c2.304 1.874 4.577 3.748 6.738 5.744-2.161-1.997-4.413-3.891-6.738-5.744z" fill="#000000" />
	<path d="M363.899 220.621c-2.949-3.441-6.062-6.677-9.308-9.79 3.205 3.113 6.359 6.339 9.277 9.79h0.031z" fill="#000000" />
	<path d="M364.902 405.688h-1.034c-6.492 7.608-13.732 14.521-21.657 20.592h1.086c7.895-6.103 15.155-12.954 21.606-20.592z" fill="#000000" />
</svg>
